<svg xmlns="http://www.w3.org/2000/svg" id="svg416" width ="2457.6" height="1273.92" version="1.1" viewBox="0 0 1843.2 955.44">
  <g id="patch_3" transform="matrix(1.2903226 0 0 1.3377016 -297.29029 -167.71728)">
    <path id="path14" d="m 230.4 208.7299 12.83728 3.91956 11.18869 7.38564 9.82047 -2.5011 -1.26578 4.42236 -4.89278 3.77169 -9.16042 -.69648 -11.62551 -2.76674 -6.90207 -3.08371.00006 -5.22561 z" />
  </g>
  <g id="patch_4" transform="matrix(1.2903226 0 0 1.3377016 -297.29029 -167.71728)">
    <path id="path17" d="m 1658.88 224.24171 -11.7462 1.26437 3.7211 1.69616 3.1113 6.91276 -10.5338 1.32025 -14.1097 4.12324 -14.342 2.57445 -12.718 2.14838 -12.3326 3.88507.9421 10.5128 -6.2739 8.20352 -9.8549 5.90747 -8.1824 4.92412 -3.2877 -10.99795 2.4116 -10.00286 13.9293 -8.81134 14.9403 -6.74857.3354 -5.54165 -10.4562 4.61407 -10.7983 -2.32297 -10.7525 3.27703 -7.5505 6.35738 -10.2376 -.0603 -12.2762 -.9446 -12.5931.39632 -19.0573 6.15027 -17.2317 11.10528 6.4672 3.85836 11.4215.83689 1.4769 12.03391 -5.689 12.07331 -11.8402 11.99141 -14.4817 8.14973 -9.3046 3.15195 -7.749 7.91137 1.2826 8.2968.5675 10.574 -8.0342 -.20727 -4.1896 -9.7329 -5.8388 -7.50236 -10.0259.94478 -4.3224 -4.08497 -8.9352 5.83991 4.82 5.63435 8.4029.37377 -7.0847 7.4627 2.6573 9.3893 2.2982 9.27888 1.647 6.89942 -6.2222 8.62619 -6.0456 7.95836 -11.2755 7.45418 -13.362 3.12041 -8.0897 5.38287 -8.8092 -2.8227 -7.8976 6.90107 3.0555 9.21239 7.3721 10.54236 1.0364 12.53388 -8.9175 5.69983 -8.7986 1.89845 -7.4315 -7.83447 -7.7745 -5.32548 -5.5044 9.53803 3.3696 10.00466 8.0338 7.93475 5.0378 9.85814 -1.3692 6.90814 -7.9528 -6.78669 -5.5584 -11.52649 -4.804 -11.65257 -.3786 -14.89337 -4.802 -14.22556 -9.6231 1.41248 -2.8895 -10.32112 -7.0199 -8.49476 -7.471 -3.5873 -19.2146 9.14088 -17.0671 13.83292 -5.5665 16.12745 -7.0789 15.16072 -8.913 -9.47937 -5.2818 -12.72866 -5.1591 -15.52235 -2.2252 -16.37722 -8.5181 2.18087 -6.0651 -7.34997 -11.1185 -6.80538 -12.7535 -.47839 -12.5682 -.46295 -11.3479 -5.38412 -14.3632 -2.51641 -12.0724 -8.45243 -7.3294 1.19631 5.413 9.35563 6.6864 6.66842 7.8335 2.94221 9.9704 -3.82267 7.333 6.07478 5.0577 7.75893 -6.1998 9.0562 -14.3606 11.68235 -17.4492 7.71616 -10.6136 4.7867 -10.4214.96342 -5.4908 -7.94996 -3.146 -10.37326 -8.1712 -10.07046 -5.6909 -11.35211 -7.6291 -11.26289 -7.3244 -11.46155 -8.3309 -4.02603 4.5467 -7.14685 7.3038 -8.05182.1539 -11.27516 -13.5025 1.21768 -13.652 -.95479 -8.3217 -7.38974 5.3375 -8.00001 13.2114 -3.87751 13.7298 -1.3204 12.147 2.50132 12.2914 -.63198 -4.6584 -8.8373 -8.786 -6.65949 3.1832 -7.19596 -8.8584 1.31906 -2.9211 4.12273 -1.5048 2.52061 -8.711 -3.28842 -8.2175 -2.11603 -7.3359 6.62435 -5.3964 9.04174 -2.2785 7.32977 -10.8318 -.26035 -4.5845 5.20735 -.6703 9.47472 -4.9999 -4.16073 -6.6347 -7.10652 -7.5158 -11.318 -12.4622 -7.75979 -8.07722 -1.55525 4.72222 8.51958 10.1781 6.59661 1.7452 5.30242 -4.6694 4.27481 -6.3839 -7.23221 -10.58047 -6.79886 -9.78395 -7.87125 -10.7541 2.84891 -10.66071.85863 -9.54237 8.60201 -6.98746 10.29076 -12.32448 7.65628 -14.75103 -1.74739 -6.95166 -5.68403 -.19234 -10.81118 2.67608 -8.3525 11.77808 -.68407 11.4015 -.93134 4.86289 -8.95846 -8.22348 -6.31551 2.18801 -4.8402 10.05413 -3.51642 9.40307 -5.17108 9.26862 -4.78662 10.13712 -3.81132 5.91519 -4.8867 2.17224 -9.07627 3.88552 2.22748 4.34598 7.10819 10.97852 1.84281 10.5271 -2.73388 10.8165.13995 7.078 -6.03301 8.0764 -5.9143 1.7722 -5.64079 9.1188 -2.37172 11.1134 -1.39959 -2.4417 -2.16566 -11.5359 1.12681 -10.5756 -1.05322 -2.9804 -8.12709 9.0603 -7.63971 -2.0625 -5.03875 -9.2073 4.17379 -9.3138 5.9115 -5.1876 8.07622 2.4548 6.93569 -6.8597 6.65294 -6.6514 7.20864 -9.01 -3.04518 -6.66716 -8.62072 -9.59458 1.07963 -9.82668 -.72959 -1.5467 -7.54528 6.74312 -2.22908 -6.54253 -1.81604 6.97758 -3.60431 8.10025 -3.40143 2.30859 -.99983 4.80808 -3.91149 8.76657 -5.72658 6.00396 -4.5792 6.1216 -3.76327 7.9988 -3.88476 10.2312 -2.29931 10.3045 -2.87598 9.426.10131 9.6085 -1.66646 10.251 1.82219 -4.8174 2.30808 10.7173.3187 15.4496 3.40642 15.3356 3.95558 -5.7917 5.86185 -11.42 -.39515 -10.2851 -1.14706 4.6607 6.16848 8.6771 3.66718 9.0633 -1.61762 8.5742 -4.24249 10.2899 -4.54988 5.6251 -6.16348 2.3517 5.42068 15.7334 -3.51762 16.7245 -3.50097 6.2265 2.24836 12.002 -2.14286 9.2923 -2.11909 9.906 -.38058 10.8292 2.41075 8.6256 -.35426 -3.9548 -6.57501 7.2457 -5.93954 10.1027 -2.09968 3.0008 9.3664 2.6883 8.37946 -8.9067 5.38243 2.1353 1.51027 10.9598 -4.50674 9.8702 -3.03085 5.3942 1.13487 -10.2886 -5.05702 -6.7494 -7.20427 8.2796 -2.53648 6.0434.71168 10.9169 -1.94311 10.5928 3.71224 1.5637 1.34445 -6.3257 -5.60119 4.8011 -5.89708 11.3929 -.31366 5.6816 -4.08517 9.7234 -2.2027 13.0524 -1.8031 12.896 -.57184 15.2744 -1.4122 14.2412 -5.02532 8.6341.88106.2203 1.61239 15.5036 1.23422 14.9464 3.1465 -13.8795 6.43715 -14.9524 4.38722 11.3537 -1.49038 10.4744 -1.15678 17.1595.84297 16.8277 2.52839 15.8993 -1.38458 15.8127.69061 7.3875 7.73903 9.9537 -.36484 12.9319 -1.12033 12.6979 -.0182 13.588 -4.77616 15.1318 1.75152 1.958.75075 10.7989 1.63029 18.6228 2.705 18.615 3.36869 23.6322 2.83043 23.8032 2.43523 7.2068 -4.20225 11.3422.80147 11.3368.97358 6.7013 5.76051 v 11.7165 h .001 z" />
  </g>
  <g id="patch_5" transform="matrix(1.2903226 0 0 1.3377016 -297.29029 -167.71728)">
    <path id="path20" d="m 1071.2953 357.38132 8.2812 18.61579 9.0061 18.30375 7.0569 14.65186 8.8807 13.6019 7.6613 6.97292 3.5887 8.10185 14.2349 1.204 14.0419 -1.776 1.1773 9.84139 -5.8687 10.26173 -12.0125 14.57932 -14.0341 12.67113 -10.6709 13.22594 -2.2008 16.42463 3.8875 12.72341.2718 13.26577 -5.7569 9.20418 -10.0708 6.85159 -5.1309 9.53385 1.0151 10.83261 -11.2522 14.86705 -10.8409 15.27631 -9.445 7.1808 -11.1028 4.03761 -11.0078 1.21443 -9.9387 -.65108 -5.2104 -8.80886 -4.2615 -10.01813 -7.4498 -17.5148 -7.06214 -17.81386 -3.52026 -11.04452 -.96339 -11.39779 4.43336 -24.61026 -11.53139 -23.03708 -4.55841 -8.49489 1.00335 -9.07008 -1.22867 -10.17253 -10.87939 -1.27407 -7.12674 -6.51541 -10.00597 -.88204 -13.68227 3.97534 -14.08776.38075 -10.89556 1.34062 -9.99441 -4.65679 -12.34499 -12.36977 -11.8646 -13.00378 -1.32542 -11.93005 1.72257 -11.8216 -1.76582 -12.59143 5.24418 -11.35422 9.68523 -11.97534 12.18872 -9.58378 3.84401 -10.45431 8.69459 -7.45669 9.06849 -4.60903 11.43931.10509 11.80012 -3.81784 12.37561 -1.57526 11.57085 -.94484 10.57767 1.53118 2.87866 10.25953 9.09813 5.66668 12.11994 4.32215 12.3459 3.67212 7.6216 -7.26539 10.5639 1.32266 15.5586 3.74396 z" />
  </g>
  <g id="patch_6" transform="matrix(1.2903226 0 0 1.3377016 -297.29029 -167.71728)">
    <path id="path23" d="m 622.90432 447.54552 3.10016 3.88336 -9.40034 -2.17673 -9.25074 -5.41155 -5.94195 -8.16403 -7.52397 -6.39648 -10.79364 -2.63661 -10.5743 -5.49308 -11.50208 -1.59323 -16.98475 -5.71464 -15.47957 -8.81356 -4.92694 -11.56021 -7.32538 -10.02436 -11.03567 -10.53811 -9.36169 -11.88948 -6.34761 -2.6839 4.64707 9.40661 8.26875 11.17343 6.72938 12.1483 -7.99903 -7.58207 -6.95434 -8.15586 -5.2407 -8.18471 -6.31128 -9.45889 -13.13953 -11.27242 -9.5333 -13.73626 -6.99059 -8.24453 -1.17006 -11.41829.60217 -10.41404 -1.57961 -9.84801 7.31635 -.87468 -5.10239 -6.83065 -8.62255 -4.24283 -7.12967 -5.48048 -6.68509 -6.93622 -4.26128 -6.92806 -9.00311 -5.28907 -8.44504 -6.31237 -9.59679 -.17919 -8.14721 -4.61028 -15.54574 -1.44153 -15.12865 -3.16111 -8.30102 3.99692 -9.15134.76594 6.76573 -5.625 -7.77692 2.27841 -7.75934 6.83162 -8.8751 5.91379 -12.72121 5.88205 -13.41115 2.34185 12.81708 -4.06568 8.96518 -10.15641 -11.21927.98592 -9.01787 -4.0336 -9.72726 -3.79342 -2.55312 -5.57121 10.66167 -5.2446 3.70721 -4.28621 -10.41605.15346 -9.02525 -4.42385 4.73201 -3.39988 11.493.81084 4.40247 -1.85399 -8.39044 -2.39232 -8.12177 -4.93963 8.52278 -3.90127 17.9628 -5.1563 18.65745 -.4318 27.80838 2.72463 27.85828 3.02895 12.98888 1.64183 12.73075 -1.88121 12.51102 -.78686 12.19606 -2.31037 24.61082 3.64078 24.94976 2.01385 9.10343 4.51267 11.8895.35898 8.55285 1.60568.77313 -4.60444 4.26608 -.45144 12.31713 1.84642 10.79837 1.25364 10.86802.12274 4.89776 -1.39791 8.41667 -1.9681 -3.33182 -6.04628 1.48877 -4.81084 9.4809 3.28949 8.25148 6.18797 9.11769 4.20631 8.61952 -1.11204 4.84246 -6.62518 10.71285 1.70733.61254 6.83932 -8.6165 3.43121 -6.11579 2.38979 -9.38423 2.65263 -5.17347 -.40823 4.30482 3.90736 -13.17771 2.66827 -6.32362.64646 3.66869 3.66596 -8.01686 7.57349.12447 8.78282 9.00881 5.88329 18.64153 5.13615 18.94298 3.19587 3.38982 10.86456 8.67882 3.38449 1.33401 -9.20227 5.694 -7.67561.37859 -10.47472 -2.42287 -10.44963 7.42853 -5.03735 11.24981 1.27628 9.78007 4.09562 4.5658 8.43624 10.81576 1.44808 8.6195 -5.20085 7.36255 5.49227 4.16196 8.12901 9.52949 4.98388 2.5515 3.98705 -4.60968 2.44068 10.73511 -1.45082 5.00143 6.38939 -8.93615 4.56154 -20.21138 3.32841 -19.42358 5.01126 -8.29888 6.21712 5.75179 -2.72451 11.46135 -3.02295.5808 2.5911 2.25959 4.41541 9.82469 5.07859 -.37157 4.53833 -10.63528 1.62011 3.76488 -3.47214 -5.82223 -.46053 -10.29029 4.18593 -8.60155 6.41917 -3.85611 5.86984 -10.17694 4.45432 -4.84875 6.16035 -2.14527 -2.61583 -.83968 7.32988 -.46248 5.07361 -3.47726 6.17276 -8.9531 5.94951 -5.85024 8.35346 2.43687 10.44292 -1.12544 9.23706 -6.73359 -6.31454 -5.21847 -8.54565 -10.66383 -3.25883 -10.09111.62197 -4.28199 4.09844 -17.0399 -.80713 -11.95772 10.40846 -1.21564 11.85669 2.45984 11.41493 7.80488 9.12772 11.54814.24715 7.05462 -7.38528 9.51065 -3.72753.99158 8.7069 -1.28947 10.83335 10.60255 3.12082 6.97079 6.93189 2.18659 12.4921 z" />
  </g>
  <g id="patch_7" transform="matrix(1.2903226 0 0 1.3377016 -297.29029 -167.71728)">
    <path id="path26" d="m 653.54068 692.80283.23599 -5.91366 -3.23529 -7.80352 -.95517 -8.65062 -.28842 -5.21996 5.57388 -6.36439 1.44028 -10.28426 -3.16514 -14.04957 5.12368 -14.96331 2.68144 -15.96367 2.31913 -16.177 2.83613 -16.29233 -2.01329 -15.83298 -11.67784 -8.48067 -9.64111 -10.02614 -9.06967 -15.95173 -11.07742 -14.60685 2.79422 -10.41153 -.64883 -10.40739 6.13122 -9.3715 7.76724 -8.63848 -2.51854 -12.11445 -6.80087 -10.29341 10.42633 2.3274 6.23383 -7.70034 10.99348 -4.08253 3.3762 3.75284 2.90694 1.2783 8.19418 -2.72952 10.39991 3.83169 10.43563 -1.49437 8.88715 4.07047 8.12807 7.38068 8.71852 6.99543 11.222 1.04827 11.69229 8.47834 2.06179 13.12696 -2.67915 5.86994 7.9398 3.55964 11.68382 -3.73898 11.2921 6.65998 16.47892 2.45714 15.56836 6.70484 1.75545 11.02391 -5.01372 10.03744 -8.63375 12.87794 -2.68558 15.39777 -6.23763 14.95483 -13.62522 7.70502 -12.80903 6.07513 -4.68924 12.60909 -6.70053 9.77336 -5.2422 4.84678 -.35234 -1.07761 -7.54368 9.85261 -10.99961 2.91102 -7.56251 -2.36194 5.18334 9.62432 -6.49113 7.82067 -10.02043 2.70011 -6.95317 6.47729 -5.90076 5.61514 -4.99167 8.06635 -3.45362 9.07972 -1.53584 9.69955 -6.51887 8.49531 -3.75446 6.53545 -8.30634 1.47926 -6.68928 -.19728 h .00001 z" />
  </g>
  <g id="patch_8" transform="matrix(1.2903226 0 0 1.3377016 -297.29029 -167.71728)">
    <path id="path29" d="m 1524.8807 636.04722 -10.7404 -.59442 -10.6494 -2.56727 -6.7249 -8.20614 -6.6128 -6.45764 -3.0714 -1.17426 -8.1793 -2.40154 -16.3819 -6.72344 -17.7938 3.79422 -10.2615 4.90114 -11.3725.62296 -10.5406 4.01123 -9.3182 -3.12248 -2.0158 -16.39303 -6.4331 -15.68759 1.5772 -6.33822 3.9259 -9.41162 13.5272 -7.5373 13.9554 -6.3902 5.651 -6.83246 6.6265 -5.39153 7.1221 -5.08585 8.816 2.34559 6.3739 -6.93024 7.7159 -6.23475 10.9816 2.02098 4.6126 6.00703 2.0792 9.11588 10.8518 5.28892 6.7964 -6.09801 1.8232 -11.09776 3.8071 -4.24319 6.92 9.30062 4.6143 9.69327 3.4779 9.84 8.7745 7.05722 7.3414 8.34721 10.7302 19.00486 -5.8825 21.17468 -5.2659 9.82987 -6.8239 7.46482 -4.9954 2.52416 z" />
  </g>
  <g id="patch_9" transform="matrix(1.2903226 0 0 1.3377016 -297.29029 -167.71728)">
    <path id="path32" d="m 767.27326 244.43706 -8.12231 -3.77891 -8.60483 -3.4333 -5.84661 -5.77545 -1.45459 -4.18973 -2.2529 -2.29866 -2.85174 -2.40975 1.27799 -4.46274 -4.25775 1.133.17158 -2.81793 -.25828 -1.61758 2.69857 -1.61528 2.8186 -.83211 -2.05131 -1.68052 5.82777 -3.05462 -9.40576 -4.50826 4.7019 -.95935 -2.78863 -3.39411 -7.39531.10843 -5.58974 -6.30561 -6.63305 -6.51758 -18.68417 -5.68693 -20.22516 -.40428 -6.52413 -1.40355 -5.92158 -1.60264 9.6612 -.47726 -2.64402 -.65741 4.27536 -.60299 -11.52155 -1.00823 -2.62684 -3.20946 11.65348 -1.92066 11.5339 -2.94498 -.00042 -1.69101 -2.38467 -1.68551 11.46063 -2.11574 10.71417 -2.46836 5.60191 -.35104 6.50684 -1.62089 11.85288 1.26493 10.05948.005 9.37205 -1.15474 11.36119.76597 5.15273 -2.13361 3.82588 -.13667 8.96613 -.63345 -9.15691 -1.04833 9.13121.3692 12.6892 -2.09536 12.96901 -.11318 16.97183.26473 16.97182.26474 -20.04699.50961 -19.95409 1.99189 21.73478 -.99809 21.62525 -.34845 11.57132 1.73151 -1.89413.40639 -20.24872 1.36182 -20.27704.86958 15.66819.24698 15.32904.91715 6.81172.94458 4.3287 1.47917 18.17327 -2.32841 18.33155 -.64101 -9.67102 3.90935 -11.49608.53861 1.81573.47608 5.61996.46044 -7.46645 1.59422 2.95013 1.67723 -8.3688 4.58394 4.66263 5.35371 -8.74348 1.62665 4.21088 2.16284 -.43378 2.12766 -5.24085.50074.69072 1.34872 6.43651 1.67142 -4.96303 2.22362 3.98994 1.13627 -11.54531 1.07758 -11.68122 1.05459 -.0501 2.48111 3.76976 1.52184 10.89589 3.46068 -2.9151 2.5958 -10.92077 -2.94938 -5.51947.47104 1.25405 1.586 -2.28625 2.77128 4.2126.60671 12.29194.012 -.82802 2.64735 -11.65979 3.44266 -11.28198 1.52121 -11.31132 -1.19114 -8.02211 6.72341 -10.28757 3.93426 -8.60166.62476 -7.24113 6.74896 -4.58408 5.52976 -1.9428 6.22781 -3.84618 2.3866 -4.07023 1.82269 h  -.00001 z" />
  </g>
  <g id="patch_10" transform="matrix(1.2903226 0 0 1.3377016 -297.29029 -167.71728)">
    <path id="path35" d="m 1539.84 522.52607 -9.7567 -1.98008 -8.6808 -6.9995 -8.7382 2.28898 -8.4837 1.55925 -8.2282 -5.97504 -6.847 -7.98949 -10.4915 -4.92144 -10.408 -5.00343 2.5285 -4.27328 1.9965 -3.35349 6.9634 6.36928 9.463 -1.5734 12.836 1.04127 12.7532 4.57096 9.5668 7.18601 5.3924 9.31053 5.1772 4.75846 z" />
  </g>
  <g id="patch_11" transform="matrix(1.2903226 0 0 1.3377016 -297.29029 -167.71728)">
    <path id="path38" d="m 1400.96 498.42705 -12.9425 -4.33792 -8.6653 -8.68774 1.3564 -8.13065 9.059 -5.88124 9.3487 -8.22913 9.7855 -7.67042 4.1827 8.28656.335 10.48819 -3.012 9.74619 -4.2951 10.59403 -2.4643 1.98748 z" />
  </g>
  <g id="patch_12" transform="matrix(1.2903226 0 0 1.3377016 -297.29029 -167.71728)">
    <path id="path41" d="m 1123.1966 583.62995 -5.504 -9.09206 1.2074 -10.75903 1.4469 -11.53013 6.7694 -7.00277 7.8215 -7.30149 5.4776 -4.87664 2.2448 13.97978 -4.4177 14.7945 -4.6897 13.44199 z" />
  </g>
  <g id="patch_14" transform="matrix(1.2903226 0 0 1.3377016 -297.29029 -167.71728)">
    <path id="path47" d="m 1357.3086 503.62857 -13.1151 -14.92133 -11.7741 -16.21477 -6.7959 -8.15153 5.6474 -2.73487 11.1646 11.10863 13.2621 8.30623 4.5462 10.01141 4.5986 9.33836 -2.9369 4.7234 z" />
  </g>
  <g id="patch_15" transform="matrix(1.2903226 0 0 1.3377016 -297.29029 -167.71728)">
    <path id="path50" d="m 1484.288 348.73426 -10.7329 -2.28134 -6.0612 -1.4254 10.9571 -4.93204 10.2313 -5.61771 8.9748 -5.22608 4.947 -10.27906 3.9791 8.26174 -3.1464 10.86098 -8.1313 5.58532 -9.2336 3.92996 -.5352.33711 -.5352.33711 -.3567.22471 z" />
  </g>
  <g id="patch_16" transform="matrix(1.2903226 0 0 1.3377016 -297.29029 -167.71728)">
    <path id="path53" d="m 494.0563 208.70883 -9.33419 -2.76455 8.1146 -2.01725 -.2985 -1.49754 -11.54092 -.97639 -.49163 -1.74553 -1.24465 -.63461 -1.38232 -4.37476 11.57855 -1.83853 10.54729 1.12288 10.42585 1.21884 10.85842 -2.21627 7.92927 6.58818 9.09827 3.25382 -2.00172 5.45945 -13.31367.0696 -13.53644 1.51678 -7.7544.45226 z" />
  </g>
  <g id="patch_17" transform="matrix(1.2903226 0 0 1.3377016 -297.29029 -167.71728)">
    <path id="path56" d="m 944.64 280.97062 -13.28876 1.3062 -6.44629.69454 3.44732 -6.34956 2.86408 -6.67128 -2.11281 -6.0685 -7.49431 -6.33966 6.51573 -6.70718 5.1014 7.032 5.40381 6.7399 5.97993 8.04252 4.98387 4.57077 z" />
  </g>
  <g id="patch_18" transform="matrix(1.2903226 0 0 1.3377016 -297.29029 -167.71728)">
    <path id="path59" d="m 638.75458 152.65466 21.29198.36734 21.29161.38846 -1.0664.91957 12.42386.10121 1.41893 2.6172 -11.29482 1.41193 -10.21232 -.1107 3.97289 1.04067 -6.28159 1.10152 10.35879 -.54494 4.3172.35892 -11.4386 2.04393 -9.55679 1.00666 -1.42018 1.63698 -11.4758 1.7433 -11.59743.69728 1.49909 1.44771 -3.13819.44109 4.14979 2.61067 -10.45874 2.59747 -7.09181 1.24548 7.21711 1.83197 -10.34434 1.443 -11.20544.0467 -11.7785.0417 -5.80799 -1.41731 8.10197 -3.03312 10.51271 -.18025 1.3947 -1.31977 -10.48488 -2.50917 9.79448 -.59419 4.4134 -1.19394 -9.48524 -3.05487 4.90439 -1.39403 8.29844 1.15892 -2.92987 -2.04585 12.11468 -.98494 12.11469 -.98494 -6.85923 -1.10356 -9.56074 1.56336 -10.73578.32172 -10.97373.58911 9.13056 -1.86242 -8.07765.63423 -10.41326 -.0157 6.13548 -1.06267 -2.80592 -.00073.29069 -1.27701 -10.71485 -.81217 6.0382 -1.59932 10.34071.1162 -1.82816 -.80618 12.16301 -.38845 12.12776 1.07722.42719 -3.46065 11.16421 -.70525.63022 -.0539.63022 -.0539.18464 -.0158.18465 -.0158 v .00004 z" />
  </g>
  <g id="patch_19" transform="matrix(1.2903226 0 0 1.3377016 -297.29029 -167.71728)">
    <path id="path62" d="m 1418.73 502.33896 -.9809 -11.6205 4.2891 -10.56888 11.3166 -2.71675.7674 3.47445 -9.7325 2.77049 5.1201 2.69699 -.2918 5.22951 -.4535 10.33091 -5.3575 -4.28504 -3.6253 5.47415 -.5068 -.37844 -.5068 -.37845 -.019 -.0142 z" />
  </g>
  <g id="patch_20" transform="matrix(1.2903226 0 0 1.3377016 -297.29029 -167.71728)">
    <path id="path65" d="m 1619.2 666.03881 -9.6969 -1.44908 5.112 -7.52339 8.8095 -6.42213 8.1022 -5.85193 2.2857 5.72481 -8.4624 7.48529 -2.9831 4.11564 z" />
  </g>
  <g id="patch_21" transform="matrix(1.2903226 0 0 1.3377016 -297.29029 -167.71728)">
    <path id="path68" d="m 1396.992 516.58409 -15.8365 -2.31458 -15.6234 -3.41965 5.7239 -3.77669 11.6847 1.36301 9.9518 3.07488 5.2286 5.38233 -.2822 -.0773 -.2823 -.0773 -.2823 -.0773 z" />
  </g>
  <g id="patch_22" transform="matrix(1.2903226 0 0 1.3377016 -297.29029 -167.71728)">
    <path id="path71" d="m 1638.7919 645.19689 -1.2192 -10.2721 -3.0286 -9.03761 -.1647 -3.1626 8.1779 7.93765 7.4417 4.61303 -6.1619 8.15153 -1.9743 2.70017 z" />
  </g>
  <g id="patch_23" transform="matrix(1.2903226 0 0 1.3377016 -297.29029 -167.71728)">
    <path id="path74" d="m 725.60024 296.00562 -8.99739 -2.8101 -2.59725 -6.90173 6.76224 -6.46427.2489 5.07428 8.76479 3.73388 4.75275 7.45136 -4.42109 -1.19215 -4.51295 1.10875 v  -.00001 z" />
  </g>
  <g id="patch_24" transform="matrix(1.2903226 0 0 1.3377016 -297.29029 -167.71728)">
    <path id="path77" d="m 647.04 403.47251 -10.9884 -2.48021 -10.33753 -5.40792 -10.27738 -1.99175 -2.4419 -.56301 13.08969 -.9286 12.52725 5.01254 5.8915 2.37014 z" />
  </g>
  <g id="patch_25" transform="matrix(1.2903226 0 0 1.3377016 -297.29029 -167.71728)">
    <path id="path80" d="m 1426.0696 427.91818 -4.144 -8.04539 4.3983 -8.48418 2.8007 7.55994.8717 7.26543 z" />
  </g>
  <g id="patch_26" transform="matrix(1.2903226 0 0 1.3377016 -297.29029 -167.71728)">
    <path id="path83" d="m 877.184 229.36373 -11.31761.44451 -11.31684 -.47231 -2.39817 -6.5312 -.0101 -1.7409 9.83073 -.0681 10.40176 -.37271 11.19878 -.36493 4.03562 5.33337 -4.83838 2.63137 z" />
  </g>
  <g id="patch_27" transform="matrix(1.2903226 0 0 1.3377016 -297.29029 -167.71728)">
    <path id="path86" d="m 1440.64 459.24968 -7.8175 -6.19014 2.7499 -3.56329 8.5537 -2.24226.2159 9.09908 -1.1441 2.46477 z" />
  </g>
  <g id="patch_28" transform="matrix(1.2903226 0 0 1.3377016 -297.29029 -167.71728)">
    <path id="path89" d="m 912.896 276.7218 -7.26512 -1.22562 2.41984 -7.07965 8.46714 -3.92418 2.96675 6.82473 -2.34495 3.93657 z" />
  </g>
  <g id="patch_29" transform="matrix(1.2903226 0 0 1.3377016 -297.29029 -167.71728)">
    <path id="path92" d="m 1513.0905 315.84471 -9.5874 -.89003.9793 -5.79559 9.9647 -4.12543 6.0449 5.40455 -3.4924 2.83387 z" />
  </g>
  <g id="patch_30" transform="matrix(1.2903226 0 0 1.3377016 -297.29029 -167.71728)">
    <path id="path95" d="m 1508.096 300.0932.5464 -12.69525 -2.036 -12.53618 4.4776 -4.09617 3.9635 10.26625 -.9242 9.5161 -4.3366 7.12378 -.8618 1.17986 z" />
  </g>
  <g id="patch_31" transform="matrix(1.2903226 0 0 1.3377016 -297.29029 -167.71728)">
    <path id="path98" d="m 662.31516 411.07992 -8.19388 -2.7243 7.82235 -4.25526 8.63291 4.10968 -7.27131 2.5321 -.49503.16889 z" />
  </g>
  <g id="patch_32" transform="matrix(1.2903226 0 0 1.3377016 -297.29029 -167.71728)">
    <path id="path101" d="m 467.15381 196.80871 -11.25091 2.60791 -7.09381 -4.77612 5.8255 -7.52992 11.29966.47204 12.31385 1.33163 1.63742 3.53421 -6.24947 2.41972 z" />
  </g>
  <g id="patch_33" transform="matrix(1.2903226 0 0 1.3377016 -297.29029 -167.71728)">
    <path id="path104" d="m 1263.1016 458.70067 -1.1693 -11.04928 5.6621 2.26911 -1.1404 5.12435 z" />
  </g>
  <g id="patch_34" transform="matrix(1.2903226 0 0 1.3377016 -297.29029 -167.71728)">
    <path id="path107" d="m 1523.9644 654.43216 -1.456 -8.41029 9.3168 1.53845 -.8722 6.28465 z" />
  </g>
  <g id="patch_35" transform="matrix(1.2903226 0 0 1.3377016 -297.29029 -167.71728)">
    <path id="path110" d="m 578.92334 184.92772 -10.52347 -5.70444 -2.97953 -1.55957 11.145.54667 11.06863 1.42549.59824 1.98804 11.45184 1.352 14.62662 -.60704 14.58931.71333 -9.82949 3.12771 -11.31231.54506 -14.45249 -.51732 z" />
  </g>
  <g id="patch_36" transform="matrix(1.2903226 0 0 1.3377016 -297.29029 -167.71728)">
    <path id="path113" d="m 679.87851 700.74713 -11.62399 -.79992 -5.41316 -1.3261 5.67068 -2.5033 2.75513 -2.77706 10.68154 3.91808 z" />
  </g>
  <g id="patch_37" transform="matrix(1.2903226 0 0 1.3377016 -297.29029 -167.71728)">
    <path id="path116" d="m 1175.8053 188.86686 -9.6723 1.93779 -3.5967 -1.37449 6.1942 -4.3228 10.558 -3.40438 17.7384 -2.1188 17.8394 -1.49925 -15.5581 4.27614 -15.9743 3.66479 -4.7017.80181 z" />
  </g>
  <g id="patch_38" transform="matrix(1.2903226 0 0 1.3377016 -297.29029 -167.71728)">
    <path id="path119" d="m 623.232 230.77708 -11.40674 -.81563 -10.45182 -2.53152 9.5369 -3.69904 10.93672 3.71784 3.95453 1.53224 -2.56959 1.7961 z" />
  </g>
  <g id="patch_39" transform="matrix(1.2903226 0 0 1.3377016 -297.29029 -167.71728)">
    <path id="path122" d="m 486.0986 184.91857 -3.28523 -2.28938 1.24221 -1.90553 13.62989.33823 13.79921 1.30107 6.60618 -1.35221.40371 3.05741 -13.90877 1.92324 -13.99035.11281 8.22723 -1.61668 -9.48956 -.55741 -1.61727.49422 z" />
  </g>
  <g id="patch_40" transform="matrix(1.2903226 0 0 1.3377016 -297.29029 -167.71728)">
    <path id="path125" d="m 570.86619 169.0328 9.16451 -.75669 -9.0034 -.68334 -6.75164 -2.75858 5.03367 -1.69305 2.96067 -1.84093 11.93397.66304 11.5782 2.26219 6.2864 4.67002 -11.45873 2.62606 -11.80504.29249 -2.37935 -1.98169 z" />
  </g>
  <g id="patch_41" transform="matrix(1.2903226 0 0 1.3377016 -297.29029 -167.71728)">
    <path id="path128" d="m 1005.8989 176.9612.3939 -3.53288 -7.69451 -.65996 9.30131 -1.25096 -8.3848 -.40694 -10.03088 -3.15363 6.27789 -2.05094 9.08519 1.33282 10.4252 -.75922 10.7165 2.91158 -5.5819 3.55547 -7.2466 2.90334 z" />
  </g>
  <g id="patch_43" transform="matrix(1.2903226 0 0 1.3377016 -297.29029 -167.71728)">
    <path id="path134" d="m 1463.134 359.49271 -.5575 -8.86562 4.8004 4.78705 -2.1214 2.03928 z" />
  </g>
  <g id="patch_45" transform="matrix(1.2903226 0 0 1.3377016 -297.29029 -167.71728)">
    <path id="path140" d="m 1544.0181 506.31192 -5.3558 -2.36278 9.0928 -1.05833 -1.1538 1.99206 z" />
  </g>
  <g id="patch_46" transform="matrix(1.2903226 0 0 1.3377016 -297.29029 -167.71728)">
    <path id="path143" d="m 607.36 199.65474 -12.216 -.0562 -4.31915 -4.3867 9.90246 -5.42017 4.05505 2.71417 -.82688 3.47897 z" />
  </g>
  <g id="patch_48" transform="matrix(1.2903226 0 0 1.3377016 -297.29029 -167.71728)">
    <path id="path149" d="m 559.744 197.79374 -11.18729.4015 -5.31177 -5.70494 9.25121 -2.76312 7.23746 3.50778 1.54846 1.62314 -1.53806 2.93564 z" />
  </g>
  <g id="patch_49" transform="matrix(1.2903226 0 0 1.3377016 -297.29029 -167.71728)">
    <path id="path152" d="m 1158.9021 201.81245 -5.5013 -5.40416 5.7724 -3.89061 8.0524 3.2942 -.2101 6.1543 -4.0567 -.0769 z" />
  </g>
  <g id="patch_50" transform="matrix(1.2903226 0 0 1.3377016 -297.29029 -167.71728)">
    <path id="path155" d="m 445.97131 288.06696 -7.64365 -6.03424 7.83252 1.29106 8.4242 5.94291 z" />
  </g>
  <g id="patch_52" transform="matrix(1.2903226 0 0 1.3377016 -297.29029 -167.71728)">
    <path id="path161" d="m 1000.3108 334.80581 -3.46745 -3.23529 9.45045 -1.33789 -1.9012 6.11818 z" />
  </g>
  <g id="patch_53" transform="matrix(1.2903226 0 0 1.3377016 -297.29029 -167.71728)">
    <path id="path164" d="m 567.68 196.87261 5.20058 -8.09092 10.54452 2.66621 -8.14008 1.98026 z" />
  </g>
  <g id="patch_55" transform="matrix(1.2903226 0 0 1.3377016 -297.29029 -167.71728)">
    <path id="path170" d="m 1492.1993 185.51211 8.0461 -4.80745 11.8102.7915.8819 2.67725 -11.1927 1.25573 -4.7727.0415 -4.7728.0415 v  -.00002 z" />
  </g>
  <g id="patch_60" transform="matrix(1.2903226 0 0 1.3377016 -297.29029 -167.71728)">
    <path id="path185" d="m 547.77419 184.94703 -7.29757 -3.20227 5.90179 -1.72462 9.01668 1.75291 -6.98121 3.09535 -.31984.0393 z" />
  </g>
  <g id="patch_61" transform="matrix(1.2903226 0 0 1.3377016 -297.29029 -167.71728)">
    <path id="path188" d="m 480.384 175.22048 -2.54526 3.39128 -11.72875 1.90178 2.47801 -3.46228 11.61441 -1.81342.0908 -.009 z" />
  </g>
  <g id="patch_63" transform="matrix(1.2903226 0 0 1.3377016 -297.29029 -167.71728)">
    <path id="path194" d="m 1325.5276 169.11614 -7.2699 -2.35294 9.9452 -1.57073 10.8275.4685 -4.6196 3.86203 -4.4416 -.20343 z" />
  </g>
  <g id="patch_64" transform="matrix(1.2903226 0 0 1.3377016 -297.29029 -167.71728)">
    <path id="path197" d="m 1051.776 165.2772 -13.5986 2.25341 -13.7813 -.30255 -5.2306 -2.25546 4.9388 -1.00332 13.8788.14999 z" />
  </g>
  <g id="patch_66" transform="matrix(1.2903226 0 0 1.3377016 -297.29029 -167.71728)">
    <path id="path203" d="m 551.78463 209.03388 9.78872 -.62761 -3.01937 2.37225 -5.07681 -1.39695 z" />
  </g>
  <g id="patch_73" transform="matrix(1.2903226 0 0 1.3377016 -297.29029 -167.71728)">
    <path id="path224" d="m 551.808 173.37147 -11.4941 -1.16475 -10.41697 -1.4894 8.52948 -2.16706 10.63524 3.50394 1.37318.65863 z" />
  </g>
  <g id="patch_74" transform="matrix(1.2903226 0 0 1.3377016 -297.29029 -167.71728)">
    <path id="path227" d="m 1342.7294 173.01315 10.7878 -4.207 1.8429 3.16027 -6.3167.50845 z" />
  </g>
  <g id="patch_75" transform="matrix(1.2903226 0 0 1.3377016 -297.29029 -167.71728)">
    <path id="path230" d="m 626.67315 192.83738 10.34478 -1.69078 -3.31777 2.40978 -3.5135 -.3595 z" />
  </g>
  <g id="patch_81" transform="matrix(1.2903226 0 0 1.3377016 -297.29029 -167.71728)">
    <path id="path248" fill="#fff" d="m 1140.4674 326.46993 -2.8437 -10.39774 -6.0474 -9.84278 7.8534 -6.92608 10.4345 -2.84358 3.2234 4.38337 -5.2028 8.74473 8.1427 7.47592 -1.0755 5.52713 2.7457 9.48068 -6.8722 5.10582 -7.9268 -3.03798 z" />
  </g>
  <g id="patch_82" transform="matrix(1.2903226 0 0 1.3377016 -297.29029 -167.71728)">
    <path id="path251" fill="#fff" d="m 602.48265 311.87429 -5.30946 -2.41638 6.10504 -8.71614 5.16552 -1.83297 -11.25784 -1.87782 -11.63924 -.19513 -.84412 -2.94041 9.70891 -4.692 10.00977 2.23139 9.59596 6.82026 11.04537 5.15536 -2.74514 3.62404 -6.47556 2.9744 -6.11306 -7.29575 -6.37723 5.42738 -.52576 1.86367 z" />
  </g>
  <g id="patch_83" transform="matrix(1.2903226 0 0 1.3377016 -297.29029 -167.71728)">
    <path id="path254" fill="#fff" d="m 1070.0817 490.61396 5.3541 -8.15027 4.1276 5.30208 -3.5909 4.99125 z" />
  </g>
  <g id="patch_84" transform="matrix(1.2903226 0 0 1.3377016 -297.29029 -167.71728)">
    <path id="path257" fill="#fff" d="m 1188.4813 304.98648 -9.0796 3.61036 -.4228 -7.65478 6.8301 -2.49029 z" />
  </g>
  <g id="patch_85" transform="matrix(1.2903226 0 0 1.3377016 -297.29029 -167.71728)">
    <path id="path260" fill="#fff" d="m 1059.8928 499.59597 5.6201 9.95996 -2.092 1.04282 -2.4993 -5.35135 z" />
  </g>
  <g id="patch_86" transform="matrix(1.2903226 0 0 1.3377016 -297.29029 -167.71728)">
    <path id="path263" fill="#fff" d="m 1379.0787 261.38262 -3.9383 9.27598 -9.8409 4.88895 -1.0657 -.36805 9.1587 -6.96006 2.8431 -3.41841 z" />
  </g>
  <g id="patch_87" transform="matrix(1.2903226 0 0 1.3377016 -297.29029 -167.71728)">
    <path id="path266" fill="#fff" d="m 454.62397 223.92911 2.02087 -4.01487 -.2882 -1.40125 11.35306 -.801 7.78141 2.93066 -10.08166 3.31555 z" />
  </g>
  <g id="patch_88" transform="matrix(1.2903226 0 0 1.3377016 -297.29029 -167.71728)">
    <path id="path269" fill="#fff" d="m 488.23311 240.89449 -5.38657 -2.15084 5.97393 -3.87984 10.5034 -.0495 10.67337 -1.33631 -4.68115.9325 -7.09066 3.6475 -4.80958 2.09073 z" />
  </g>
  <g id="patch_89" transform="matrix(1.2903226 0 0 1.3377016 -297.29029 -167.71728)">
    <path id="path272" fill="#fff" d="m 1079.2676 520.9857 4.1939 11.31677 -1.1105 3.57739 -2.4349 -7.37227 z" />
  </g>
  <g id="patch_90" transform="matrix(1.2903226 0 0 1.3377016 -297.29029 -167.71728)">
    <path id="path275" fill="#fff" d="m 620.63409 313.94427 6.07378.39927 -10.26077 2.59229.69097 -2.07331 z" />
  </g>
  <g id="patch_91" transform="matrix(1.2903226 0 0 1.3377016 -297.29029 -167.71728)">
    <path id="path278" fill="#fff" d="m 554.04881 272.00802 5.26792 1.4645 -.57304 4.33363 -3.79825 -2.50746 z" />
  </g>
  <g id="patch_92" transform="matrix(1.2903226 0 0 1.3377016 -297.29029 -167.71728)">
    <path id="path281" fill="#fff" d="m 643.81712 305.91127 -10.14064 4.19633 3.90709 -2.21346 3.12254 -.9675 z" />
  </g>
  <g id="patch_93" transform="matrix(1.2903226 0 0 1.3377016 -297.29029 -167.71728)">
    <path id="path284" fill="#fff" d="m 1069.6335 237.63357 -.03 4.74418 -3.2544 -4.39822 1.6424 -.39644 z" />
  </g>
  <g id="patch_96" transform="matrix(1.2903226 0 0 1.3377016 -297.29029 -167.71728)">
    <path id="path293" fill="#fff" d="m 1055.0794 239.86722 -.2653 -6.69515 6.5958 4.39645 -3.0599 1.45711 z" />
  </g>
  <g id="patch_97" transform="matrix(1.2903226 0 0 1.3377016 -297.29029 -167.71728)">
    <path id="path296" fill="#fff" d="m 1082.0959 233.06651 2.7706 5.36682 -.067 -3.59904 -1.3516 -.88389 z" />
  </g>
  <g id="patch_111" transform="matrix(1.2903226 0 0 1.3377016 -297.29029 -167.71728)">
    <path id="path338" fill="#fff" d="m 318.04651 225.15367 -10.24284 10.07627 -12.9645.34971 7.87392.55065 9.24879 -4.77454 2.94965 -3.19316 z" />
  </g>
  <g id="patch_129" transform="matrix(1.2903226 0 0 1.3377016 -297.29029 -167.71728)">
    <path id="path392" d="m 230.4 791.28218 38.23561 2.57084 38.1802 -1.0658 11.12038 -3.46147 11.55144 -.34567 17.67273 -2.55857 17.76937 -3.29338 42.41675 -4.06852 42.25298 -4.63467 25.93289 1.17061 25.84379 1.47438 20.76158 2.81316 20.98828 -.93661 -4.92523 -7.40031 8.68985 -3.53695 19.72462 1.11292 19.82245 1.53993 14.70528 1.92796 14.53527 1.56986 11.64323 -1.71587 5.60759.2044 4.68682 -2.08395 12.1553 1.0508 1.23334 -2.45164 -1.17994 -3.81713 -5.42316 -1.04142 4.30623 -2.09578 4.478 -3.45394 10.65057 -1.90293 10.66229.51752 5.99092 -8.52063 13.88277 -8.27512 15.3425 -5.61931 6.82748.53433 -10.38632 3.79335 -3.04432 7.20193.22577 10.1834 1.47317 11.35518 -2.75381 10.3206 8.5445 3.73671 11.59453 2.42624 32.11477 5.55449 32.43339 2.34745 20.36213 -1.94809 20.27356 -4.03917 10.39696 -2.65437 7.5285 -7.61221 11.80387 -.62748 11.15225 -3.98223 20.36437 -3.33694 19.81968 -5.41682 18.26523 -.9185 17.92951 -3.25699 22.94333 2.06431 23.24764 -.51353 37.30631 -.3011 37.167 -2.22924 14.402 -1.78813 14.029 3.54619 21.1007 -5.85074 21.4661 -4.10823 9.9081 -1.50532 8.8924 -3.67252 16.987 3.20456 17.1723 2.92713 21.5263.41465 20.5808 4.8634 13.9078 2.39294 13.655 -4.81928 14.136 -3.89911 14.1235 -3.09692 16.5224.86779 16.2893 -.88589 9.7869 -3.85911 11.1732.82861 10.9756 -1.1237 10.2176 3.11625 15.8794 1.74084 15.8812 -3.4803 14.6758 3.95989 15.0569 -.38763 24.2697 -.40393 24.1647 -2.07028 25.3224 2.13792 25.3479 1.37589 8.7173 5.13168 11.8479.99934 30.9992 4.00206 30.9235 4.85171 11.3214 2.83172 -1.0588 5.92508 -10.5161 3.81353 -9.8671 4.16054 2.0101 2.64022 -6.6763 2.44095 8.198 6.41675 11.4594 -1.67893 24.3356.39413 24.4317 1.29266 v 48.33463 H 230.39996 v -48.33506 h .00002 z" />
  </g>
</svg>
